<svg width="31" height="31" viewBox="0 0 31 31" fill="none" xmlns="http://www.w3.org/2000/svg">
<path d="M20.3057 13.2963C20.3057 11.6252 19.7118 10.1958 18.524 9.00803C17.3362 7.82024 15.9068 7.22634 14.2357 7.22634C12.5647 7.22634 11.1353 7.82024 9.94748 9.00803C8.75969 10.1958 8.1658 11.6252 8.1658 13.2963C8.1658 14.9673 8.75969 16.3967 9.94748 17.5845C11.1353 18.7723 12.5647 19.3662 14.2357 19.3662C15.9068 19.3662 17.3362 18.7723 18.524 17.5845C19.7118 16.3967 20.3057 14.9673 20.3057 13.2963ZM27.2427 24.569C27.2427 25.0387 27.0711 25.4452 26.7279 25.7884C26.3846 26.1316 25.9782 26.3033 25.5085 26.3033C25.0207 26.3033 24.6142 26.1316 24.289 25.7884L19.6418 21.1547C18.0249 22.2747 16.2229 22.8347 14.2357 22.8347C12.9441 22.8347 11.7088 22.5841 10.5301 22.0828C9.35133 21.5815 8.33516 20.904 7.48158 20.0504C6.62799 19.1968 5.95054 18.1807 5.44923 17.0019C4.94792 15.8232 4.69727 14.5879 4.69727 13.2963C4.69727 12.0046 4.94792 10.7694 5.44923 9.59064C5.95054 8.41188 6.62799 7.39571 7.48158 6.54212C8.33516 5.68854 9.35133 5.01109 10.5301 4.50978C11.7088 4.00847 12.9441 3.75781 14.2357 3.75781C15.5274 3.75781 16.7626 4.00847 17.9414 4.50978C19.1201 5.01109 20.1363 5.68854 20.9899 6.54212C21.8435 7.39571 22.5209 8.41188 23.0222 9.59064C23.5235 10.7694 23.7742 12.0046 23.7742 13.2963C23.7742 15.2835 23.2142 17.0855 22.0941 18.7023L26.7414 23.3496C27.0756 23.6838 27.2427 24.0903 27.2427 24.569Z" fill="white"/>
</svg>
