<svg width="86" height="64" viewBox="0 0 86 64" fill="none" xmlns="http://www.w3.org/2000/svg">
<path d="M45.1383 13.9556L43.9936 7.0813C43.4344 3.72258 40.2582 1.45317 36.8995 2.01245L7.08152 6.97757C3.72279 7.53685 1.45338 10.713 2.01266 14.0718L9.14723 56.9183C9.70651 60.277 12.8827 62.5464 16.2414 61.9871L47.2096 56.8305C49.9331 56.377 51.7732 53.8015 51.3197 51.0781V51.0781" stroke="#0A0A0A" stroke-width="3.08263" stroke-linecap="round" stroke-linejoin="round"/>
<path d="M16.492 18.5701V22.89H18.6519C18.9479 22.89 19.2264 22.8348 19.4873 22.7244C19.7482 22.609 19.9765 22.4535 20.1722 22.2578C20.3678 22.0621 20.5209 21.8339 20.6312 21.573C20.7466 21.307 20.8043 21.0261 20.8043 20.73C20.8043 20.434 20.7466 20.1556 20.6312 19.8947C20.5209 19.6288 20.3678 19.398 20.1722 19.2023C19.9765 19.0066 19.7482 18.8536 19.4873 18.7432C19.2264 18.6278 18.9479 18.5701 18.6519 18.5701H16.492ZM16.492 26.1224C16.492 26.7188 16.0085 27.2024 15.412 27.2024C14.8156 27.2024 14.332 26.7188 14.332 26.1224V17.7316C14.332 17.0018 14.9237 16.4102 15.6535 16.4102H18.6519C19.0483 16.4102 19.4296 16.4628 19.7959 16.5682C20.1621 16.6685 20.5033 16.814 20.8194 17.0047C21.1405 17.1903 21.4315 17.4161 21.6924 17.682C21.9583 17.9429 22.1841 18.2339 22.3697 18.555C22.5604 18.8762 22.7059 19.2198 22.8062 19.5861C22.9116 19.9524 22.9643 20.3337 22.9643 20.73C22.9643 21.1013 22.9166 21.4626 22.8213 21.8138C22.731 22.165 22.598 22.4986 22.4224 22.8147C22.2518 23.1308 22.0411 23.4218 21.7902 23.6877C21.5394 23.9537 21.2584 24.1845 20.9473 24.3801L21.5196 25.7297C21.8157 26.4282 21.3031 27.2024 20.5444 27.2024C20.122 27.2024 19.74 26.9514 19.5723 26.5637L18.9078 25.0274L16.492 25.0424V26.1224Z" fill="#0A0A0A"/>
<path d="M26.5466 18.5701V22.89H28.7066C29.0026 22.89 29.2811 22.8348 29.542 22.7244C29.8029 22.609 30.0311 22.4535 30.2268 22.2578C30.4225 22.0621 30.5755 21.8339 30.6859 21.573C30.8013 21.307 30.859 21.0261 30.859 20.73C30.859 20.434 30.8013 20.1556 30.6859 19.8947C30.5755 19.6288 30.4225 19.398 30.2268 19.2023C30.0311 19.0066 29.8029 18.8536 29.542 18.7432C29.2811 18.6278 29.0026 18.5701 28.7066 18.5701H26.5466ZM26.5466 26.1224C26.5466 26.7188 26.0631 27.2024 25.4667 27.2024C24.8702 27.2024 24.3867 26.7188 24.3867 26.1224V17.2403C24.3867 16.7818 24.7584 16.4102 25.2169 16.4102H28.7066C29.1029 16.4102 29.4843 16.4628 29.8505 16.5682C30.2168 16.6685 30.558 16.814 30.8741 17.0047C31.1952 17.1903 31.4862 17.4161 31.7471 17.682C32.013 17.9429 32.2388 18.2339 32.4244 18.555C32.6151 18.8762 32.7606 19.2198 32.8609 19.5861C32.9663 19.9524 33.0189 20.3337 33.0189 20.73C33.0189 21.3221 32.9061 21.8815 32.6803 22.4083C32.4545 22.9301 32.1459 23.3867 31.7546 23.7781C31.3632 24.1694 30.9042 24.478 30.3773 24.7037C29.8555 24.9295 29.2986 25.0424 28.7066 25.0424H26.5466V26.1224Z" fill="#0A0A0A"/>
<path d="M33.6586 19.6463C33.6586 19.1998 33.7439 18.7808 33.9145 18.3895C34.0851 17.9981 34.3159 17.657 34.6069 17.366C34.9029 17.0699 35.2466 16.8366 35.638 16.666C36.0293 16.4955 36.4483 16.4102 36.8948 16.4102H40.7669C41.3634 16.4102 41.8469 16.8937 41.8469 17.4901C41.8469 18.0866 41.3634 18.5701 40.7669 18.5701H36.8948C36.7443 18.5701 36.6038 18.5977 36.4734 18.6529C36.3429 18.7081 36.2275 18.7858 36.1272 18.8862C36.0318 18.9815 35.9566 19.0944 35.9014 19.2249C35.8462 19.3553 35.8186 19.4958 35.8186 19.6463C35.8186 19.7968 35.8462 19.9398 35.9014 20.0753C35.9566 20.2057 36.0318 20.3211 36.1272 20.4215C36.2275 20.5168 36.3429 20.5921 36.4734 20.6473C36.6038 20.7025 36.7443 20.73 36.8948 20.73H39.0547C39.5013 20.73 39.9202 20.8153 40.3116 20.9859C40.7079 21.1515 41.0516 21.3823 41.3426 21.6783C41.6387 21.9693 41.8695 22.313 42.035 22.7094C42.2056 23.1007 42.2909 23.5197 42.2909 23.9662C42.2909 24.4127 42.2056 24.8317 42.035 25.223C41.8695 25.6144 41.6387 25.9581 41.3426 26.2541C41.0516 26.5451 40.7079 26.7759 40.3116 26.9465C39.9202 27.1171 39.5013 27.2024 39.0547 27.2024H35.3407C34.7442 27.2024 34.2607 26.7188 34.2607 26.1224C34.2607 25.5259 34.7442 25.0424 35.3407 25.0424H39.0547C39.2053 25.0424 39.3458 25.0148 39.4762 24.9596C39.6067 24.9044 39.7195 24.8292 39.8149 24.7338C39.9152 24.6335 39.993 24.5181 40.0482 24.3877C40.1034 24.2572 40.131 24.1167 40.131 23.9662C40.131 23.8157 40.1034 23.6752 40.0482 23.5447C39.993 23.4143 39.9152 23.3014 39.8149 23.2061C39.7195 23.1057 39.6067 23.028 39.4762 22.9728C39.3458 22.9176 39.2053 22.89 39.0547 22.89H36.8948C36.4483 22.89 36.0293 22.8047 35.638 22.6341C35.2466 22.4635 34.9029 22.2327 34.6069 21.9417C34.3159 21.6457 34.0851 21.302 33.9145 20.9107C33.7439 20.5143 33.6586 20.0928 33.6586 19.6463Z" fill="#0A0A0A"/>
<path d="M26.6486 41.2026C26.6486 42.0385 26.4906 42.8252 26.1745 43.5628C25.8584 44.2933 25.4264 44.9325 24.8785 45.4804C24.3306 46.0212 23.6879 46.4497 22.9504 46.7658C22.2199 47.0819 21.4367 47.2399 20.6008 47.2399C19.7649 47.2399 18.9782 47.0819 18.2407 46.7658C17.5101 46.4497 16.8709 46.0212 16.323 45.4804C15.7822 44.9325 15.3537 44.2933 15.0376 43.5628C14.7215 42.8252 14.5635 42.0385 14.5635 41.2026V33.6376C14.5635 32.8054 15.238 32.1309 16.0702 32.1309C16.9023 32.1309 17.5769 32.8054 17.5769 33.6376V41.2026C17.5769 41.6171 17.6541 42.0069 17.8087 42.3722C17.9702 42.7374 18.188 43.057 18.4619 43.331C18.7359 43.6049 19.0555 43.8227 19.4207 43.9842C19.793 44.1387 20.1864 44.216 20.6008 44.216C21.0152 44.216 21.4051 44.1387 21.7703 43.9842C22.1426 43.8227 22.4657 43.6049 22.7397 43.331C23.0136 43.057 23.2278 42.7374 23.3824 42.3722C23.5439 42.0069 23.6247 41.6171 23.6247 41.2026V33.6428C23.6247 32.8078 24.3016 32.1309 25.1367 32.1309C25.9717 32.1309 26.6486 32.8078 26.6486 33.6428V41.2026Z" fill="#17BB63"/>
<path d="M41.3573 45.7538C41.3573 46.5746 40.692 47.2399 39.8712 47.2399H39.0169C38.463 47.2399 37.9506 46.9463 37.6707 46.4683L32.2961 37.2937V45.728C32.2961 46.563 31.6192 47.2399 30.7841 47.2399C29.9491 47.2399 29.2722 46.563 29.2722 45.728V33.4839C29.2722 32.7366 29.878 32.1309 30.6252 32.1309H31.6122C32.1663 32.1309 32.6788 32.4248 32.9587 32.903L38.3334 42.0877V33.6428C38.3334 32.8078 39.0103 32.1309 39.8454 32.1309C40.6804 32.1309 41.3573 32.8078 41.3573 33.6428V45.7538Z" fill="#17BB63"/>
<path d="M53.0632 41.2026V38.1787C53.0632 37.7643 52.9824 37.3744 52.8208 37.0092C52.6663 36.6369 52.4521 36.3138 52.1781 36.0398C51.9042 35.7659 51.5811 35.5517 51.2088 35.3971C50.8435 35.2356 50.4537 35.1548 50.0393 35.1548C49.6248 35.1548 49.2315 35.2356 48.8592 35.3971C48.4939 35.5517 48.1743 35.7659 47.9004 36.0398C47.6264 36.3138 47.4087 36.6369 47.2471 37.0092C47.0926 37.3744 47.0153 37.7643 47.0153 38.1787V41.2026H53.0632ZM56.0871 45.728C56.0871 46.563 55.4102 47.2399 54.5751 47.2399C53.7401 47.2399 53.0632 46.563 53.0632 45.728V44.216H47.0153V45.7332C47.0153 46.5654 46.3408 47.2399 45.5086 47.2399C44.6765 47.2399 44.0019 46.5654 44.0019 45.7332V38.1787C44.0019 37.3428 44.16 36.5596 44.4761 35.8291C44.7922 35.0916 45.2206 34.4488 45.7615 33.901C46.3094 33.3531 46.9486 32.9211 47.6791 32.605C48.4167 32.2889 49.2034 32.1309 50.0393 32.1309C50.8751 32.1309 51.6583 32.2889 52.3889 32.605C53.1264 32.9211 53.7691 33.3531 54.317 33.901C54.8649 34.4488 55.2969 35.0916 55.613 35.8291C55.9291 36.5596 56.0871 37.3428 56.0871 38.1787V45.728Z" fill="#17BB63"/>
<path d="M70.7958 46.1858C70.7958 46.768 70.3239 47.2399 69.7417 47.2399H68.4554C67.9015 47.2399 67.3891 46.9463 67.1091 46.4683L61.7346 37.2937V45.728C61.7346 46.563 61.0576 47.2399 60.2226 47.2399C59.3876 47.2399 58.7106 46.563 58.7106 45.728V33.4077C58.7106 32.7025 59.2823 32.1309 59.9875 32.1309H61.0507C61.6048 32.1309 62.1173 32.4248 62.3971 32.903L67.7719 42.0877V33.6428C67.7719 32.8078 68.4488 32.1309 69.2838 32.1309C70.1189 32.1309 70.7958 32.8078 70.7958 33.6428V46.1858Z" fill="#17BB63"/>
<path d="M85.7152 39.6854C85.7152 40.3808 85.6239 41.0516 85.4413 41.6978C85.2657 42.337 85.0128 42.9376 84.6827 43.4995C84.3525 44.0545 83.9592 44.5637 83.5026 45.0273C83.046 45.4839 82.5368 45.8772 81.9748 46.2074C81.4129 46.5375 80.8088 46.7939 80.1626 46.9765C79.5234 47.1521 78.8561 47.2399 78.1607 47.2399H75.1503C74.2991 47.2399 73.609 46.5499 73.609 45.6986V33.6722C73.609 32.8209 74.2991 32.1309 75.1503 32.1309H78.1607C78.8561 32.1309 79.5234 32.2222 80.1626 32.4048C80.8088 32.5804 81.4129 32.8333 81.9748 33.1634C82.5368 33.4936 83.046 33.8904 83.5026 34.354C83.9592 34.8106 84.3525 35.3199 84.6827 35.8818C85.0128 36.4367 85.2657 37.0373 85.4413 37.6835C85.6239 38.3227 85.7152 38.99 85.7152 39.6854ZM82.6913 39.6854C82.6913 39.0602 82.5719 38.4737 82.3331 37.9258C82.1013 37.3779 81.7782 36.9003 81.3637 36.4929C80.9563 36.0785 80.4752 35.7518 79.9202 35.513C79.3724 35.2742 78.7858 35.1548 78.1607 35.1548H76.654V44.216H78.1607C78.7858 44.216 79.3724 44.1001 79.9202 43.8683C80.4752 43.6295 80.9563 43.3064 81.3637 42.899C81.7782 42.4845 82.1013 42.0034 82.3331 41.4555C82.5719 40.9006 82.6913 40.3106 82.6913 39.6854Z" fill="#17BB63"/>
</svg>
